<svg id="bold_1_" enable-background="new 0 0 24 24" height="512" viewBox="0 0 24 24" width="512" xmlns="http://www.w3.org/2000/svg"><path d="m13.25 0h-10.5c-1.52 0-2.75 1.23-2.75 2.75v15.5c0 1.52 1.23 2.75 2.75 2.75h7.56c-.52-1.06-.81-2.25-.81-3.5 0-.87.14-1.72.41-2.5.17-.53.39-1.03.67-1.5.6-1.04 1.43-1.93 2.42-2.6.89-.61 1.9-1.05 3-1.26v-6.89c0-1.52-1.23-2.75-2.75-2.75zm-1.25 10.25c0 .303-.183.577-.463.693-.093.038-.19.057-.287.057-.195 0-.387-.076-.53-.22l-.79-.79-1.421 1.311c-.24.222-.596.263-.881.1l-1.252-.716-2.096 2.095c-.146.147-.338.22-.53.22s-.384-.073-.53-.22c-.293-.293-.293-.768 0-1.061l2.5-2.5c.239-.24.608-.29.902-.121l1.273.728.973-.898-.648-.648c-.215-.214-.279-.537-.163-.817s.39-.463.693-.463h2.5c.414 0 .75.336.75.75z"/><path d="m17.5 11c-3.584 0-6.5 2.916-6.5 6.5s2.916 6.5 6.5 6.5 6.5-2.916 6.5-6.5-2.916-6.5-6.5-6.5zm2.817 5.241-3.25 3.75c-.137.157-.332.251-.54.258-.009 0-.018 0-.027 0-.199 0-.39-.079-.53-.22l-1.75-1.75c-.293-.293-.293-.768 0-1.061s.768-.293 1.061 0l1.181 1.18 2.722-3.141c.271-.312.744-.347 1.058-.076.312.274.346.747.075 1.06z"/></svg>